<svg xmlns="http://www.w3.org/2000/svg" xmlns:xlink="http://www.w3.org/1999/xlink" width="614.4" height="460.8" version="1.1" viewBox="0 0 460.8 345.6"><metadata><rdf:RDF xmlns:cc="http://creativecommons.org/ns#" xmlns:dc="http://purl.org/dc/elements/1.1/" xmlns:rdf="http://www.w3.org/1999/02/22-rdf-syntax-ns#"><cc:Work><dc:type rdf:resource="http://purl.org/dc/dcmitype/StillImage"/><dc:date>2021-03-10T22:07:08.434459</dc:date><dc:format>image/svg+xml</dc:format><dc:creator><cc:Agent><dc:title>Matplotlib v3.3.4, https://matplotlib.org/</dc:title></cc:Agent></dc:creator></cc:Work></rdf:RDF></metadata><defs><style type="text/css">*{stroke-linecap:butt;stroke-linejoin:round}</style></defs><g id="figure_1"><g id="patch_1"><path d="M 0 345.6 L 460.8 345.6 L 460.8 0 L 0 0 z" style="fill:#fff"/></g><g id="axes_1"><g id="patch_2"><path d="M 57.6 307.584 L 414.72 307.584 L 414.72 41.472 L 57.6 41.472 z" style="fill:#fff"/></g><g id="matplotlib.axis_1"><g id="xtick_1"><g id="line2d_1"><defs><path id="m11d3458cc9" d="M 0 0 L 0 3.5" style="stroke:#000;stroke-width:.8"/></defs><g><use style="stroke:#000;stroke-width:.8" x="73.197" y="307.584" xlink:href="#m11d3458cc9"/></g></g><g id="text_1"><g transform="translate(70.016145 322.182437)scale(0.1 -0.1)"><defs><path id="DejaVuSans-48" d="M 31.78125 66.40625 Q 24.171875 66.40625 20.328125 58.90625 Q 16.5 51.421875 16.5 36.375 Q 16.5 21.390625 20.328125 13.890625 Q 24.171875 6.390625 31.78125 6.390625 Q 39.453125 6.390625 43.28125 13.890625 Q 47.125 21.390625 47.125 36.375 Q 47.125 51.421875 43.28125 58.90625 Q 39.453125 66.40625 31.78125 66.40625 z M 31.78125 74.21875 Q 44.046875 74.21875 50.515625 64.515625 Q 56.984375 54.828125 56.984375 36.375 Q 56.984375 17.96875 50.515625 8.265625 Q 44.046875 -1.421875 31.78125 -1.421875 Q 19.53125 -1.421875 13.0625 8.265625 Q 6.59375 17.96875 6.59375 36.375 Q 6.59375 54.828125 13.0625 64.515625 Q 19.53125 74.21875 31.78125 74.21875 z"/></defs><use xlink:href="#DejaVuSans-48"/></g></g></g><g id="xtick_2"><g id="line2d_2"><g><use style="stroke:#000;stroke-width:.8" x="112.906" y="307.584" xlink:href="#m11d3458cc9"/></g></g><g id="text_2"><g transform="translate(100.180632 322.182437)scale(0.1 -0.1)"><defs><path id="DejaVuSans-50" d="M 19.1875 8.296875 L 53.609375 8.296875 L 53.609375 0 L 7.328125 0 L 7.328125 8.296875 Q 12.9375 14.109375 22.625 23.890625 Q 32.328125 33.6875 34.8125 36.53125 Q 39.546875 41.84375 41.421875 45.53125 Q 43.3125 49.21875 43.3125 52.78125 Q 43.3125 58.59375 39.234375 62.25 Q 35.15625 65.921875 28.609375 65.921875 Q 23.96875 65.921875 18.8125 64.3125 Q 13.671875 62.703125 7.8125 59.421875 L 7.8125 69.390625 Q 13.765625 71.78125 18.9375 73 Q 24.125 74.21875 28.421875 74.21875 Q 39.75 74.21875 46.484375 68.546875 Q 53.21875 62.890625 53.21875 53.421875 Q 53.21875 48.921875 51.53125 44.890625 Q 49.859375 40.875 45.40625 35.40625 Q 44.1875 33.984375 37.640625 27.21875 Q 31.109375 20.453125 19.1875 8.296875 z"/></defs><use xlink:href="#DejaVuSans-50"/><use x="63.623" xlink:href="#DejaVuSans-48"/><use x="127.246" xlink:href="#DejaVuSans-48"/><use x="190.869" xlink:href="#DejaVuSans-48"/></g></g></g><g id="xtick_3"><g id="line2d_3"><g><use style="stroke:#000;stroke-width:.8" x="152.614" y="307.584" xlink:href="#m11d3458cc9"/></g></g><g id="text_3"><g transform="translate(139.888869 322.182437)scale(0.1 -0.1)"><defs><path id="DejaVuSans-52" d="M 37.796875 64.3125 L 12.890625 25.390625 L 37.796875 25.390625 z M 35.203125 72.90625 L 47.609375 72.90625 L 47.609375 25.390625 L 58.015625 25.390625 L 58.015625 17.1875 L 47.609375 17.1875 L 47.609375 0 L 37.796875 0 L 37.796875 17.1875 L 4.890625 17.1875 L 4.890625 26.703125 z"/></defs><use xlink:href="#DejaVuSans-52"/><use x="63.623" xlink:href="#DejaVuSans-48"/><use x="127.246" xlink:href="#DejaVuSans-48"/><use x="190.869" xlink:href="#DejaVuSans-48"/></g></g></g><g id="xtick_4"><g id="line2d_4"><g><use style="stroke:#000;stroke-width:.8" x="192.322" y="307.584" xlink:href="#m11d3458cc9"/></g></g><g id="text_4"><g transform="translate(179.597106 322.182437)scale(0.1 -0.1)"><defs><path id="DejaVuSans-54" d="M 33.015625 40.375 Q 26.375 40.375 22.484375 35.828125 Q 18.609375 31.296875 18.609375 23.390625 Q 18.609375 15.53125 22.484375 10.953125 Q 26.375 6.390625 33.015625 6.390625 Q 39.65625 6.390625 43.53125 10.953125 Q 47.40625 15.53125 47.40625 23.390625 Q 47.40625 31.296875 43.53125 35.828125 Q 39.65625 40.375 33.015625 40.375 z M 52.59375 71.296875 L 52.59375 62.3125 Q 48.875 64.0625 45.09375 64.984375 Q 41.3125 65.921875 37.59375 65.921875 Q 27.828125 65.921875 22.671875 59.328125 Q 17.53125 52.734375 16.796875 39.40625 Q 19.671875 43.65625 24.015625 45.921875 Q 28.375 48.1875 33.59375 48.1875 Q 44.578125 48.1875 50.953125 41.515625 Q 57.328125 34.859375 57.328125 23.390625 Q 57.328125 12.15625 50.6875 5.359375 Q 44.046875 -1.421875 33.015625 -1.421875 Q 20.359375 -1.421875 13.671875 8.265625 Q 6.984375 17.96875 6.984375 36.375 Q 6.984375 53.65625 15.1875 63.9375 Q 23.390625 74.21875 37.203125 74.21875 Q 40.921875 74.21875 44.703125 73.484375 Q 48.484375 72.75 52.59375 71.296875 z"/></defs><use xlink:href="#DejaVuSans-54"/><use x="63.623" xlink:href="#DejaVuSans-48"/><use x="127.246" xlink:href="#DejaVuSans-48"/><use x="190.869" xlink:href="#DejaVuSans-48"/></g></g></g><g id="xtick_5"><g id="line2d_5"><g><use style="stroke:#000;stroke-width:.8" x="232.03" y="307.584" xlink:href="#m11d3458cc9"/></g></g><g id="text_5"><g transform="translate(219.305343 322.182437)scale(0.1 -0.1)"><defs><path id="DejaVuSans-56" d="M 31.78125 34.625 Q 24.75 34.625 20.71875 30.859375 Q 16.703125 27.09375 16.703125 20.515625 Q 16.703125 13.921875 20.71875 10.15625 Q 24.75 6.390625 31.78125 6.390625 Q 38.8125 6.390625 42.859375 10.171875 Q 46.921875 13.96875 46.921875 20.515625 Q 46.921875 27.09375 42.890625 30.859375 Q 38.875 34.625 31.78125 34.625 z M 21.921875 38.8125 Q 15.578125 40.375 12.03125 44.71875 Q 8.5 49.078125 8.5 55.328125 Q 8.5 64.0625 14.71875 69.140625 Q 20.953125 74.21875 31.78125 74.21875 Q 42.671875 74.21875 48.875 69.140625 Q 55.078125 64.0625 55.078125 55.328125 Q 55.078125 49.078125 51.53125 44.71875 Q 48 40.375 41.703125 38.8125 Q 48.828125 37.15625 52.796875 32.3125 Q 56.78125 27.484375 56.78125 20.515625 Q 56.78125 9.90625 50.3125 4.234375 Q 43.84375 -1.421875 31.78125 -1.421875 Q 19.734375 -1.421875 13.25 4.234375 Q 6.78125 9.90625 6.78125 20.515625 Q 6.78125 27.484375 10.78125 32.3125 Q 14.796875 37.15625 21.921875 38.8125 z M 18.3125 54.390625 Q 18.3125 48.734375 21.84375 45.5625 Q 25.390625 42.390625 31.78125 42.390625 Q 38.140625 42.390625 41.71875 45.5625 Q 45.3125 48.734375 45.3125 54.390625 Q 45.3125 60.0625 41.71875 63.234375 Q 38.140625 66.40625 31.78125 66.40625 Q 25.390625 66.40625 21.84375 63.234375 Q 18.3125 60.0625 18.3125 54.390625 z"/></defs><use xlink:href="#DejaVuSans-56"/><use x="63.623" xlink:href="#DejaVuSans-48"/><use x="127.246" xlink:href="#DejaVuSans-48"/><use x="190.869" xlink:href="#DejaVuSans-48"/></g></g></g><g id="xtick_6"><g id="line2d_6"><g><use style="stroke:#000;stroke-width:.8" x="271.739" y="307.584" xlink:href="#m11d3458cc9"/></g></g><g id="text_6"><g transform="translate(255.83233 322.182437)scale(0.1 -0.1)"><defs><path id="DejaVuSans-49" d="M 12.40625 8.296875 L 28.515625 8.296875 L 28.515625 63.921875 L 10.984375 60.40625 L 10.984375 69.390625 L 28.421875 72.90625 L 38.28125 72.90625 L 38.28125 8.296875 L 54.390625 8.296875 L 54.390625 0 L 12.40625 0 z"/></defs><use xlink:href="#DejaVuSans-49"/><use x="63.623" xlink:href="#DejaVuSans-48"/><use x="127.246" xlink:href="#DejaVuSans-48"/><use x="190.869" xlink:href="#DejaVuSans-48"/><use x="254.492" xlink:href="#DejaVuSans-48"/></g></g></g><g id="xtick_7"><g id="line2d_7"><g><use style="stroke:#000;stroke-width:.8" x="311.447" y="307.584" xlink:href="#m11d3458cc9"/></g></g><g id="text_7"><g transform="translate(295.540567 322.182437)scale(0.1 -0.1)"><use xlink:href="#DejaVuSans-49"/><use x="63.623" xlink:href="#DejaVuSans-50"/><use x="127.246" xlink:href="#DejaVuSans-48"/><use x="190.869" xlink:href="#DejaVuSans-48"/><use x="254.492" xlink:href="#DejaVuSans-48"/></g></g></g><g id="xtick_8"><g id="line2d_8"><g><use style="stroke:#000;stroke-width:.8" x="351.155" y="307.584" xlink:href="#m11d3458cc9"/></g></g><g id="text_8"><g transform="translate(335.248804 322.182437)scale(0.1 -0.1)"><use xlink:href="#DejaVuSans-49"/><use x="63.623" xlink:href="#DejaVuSans-52"/><use x="127.246" xlink:href="#DejaVuSans-48"/><use x="190.869" xlink:href="#DejaVuSans-48"/><use x="254.492" xlink:href="#DejaVuSans-48"/></g></g></g><g id="xtick_9"><g id="line2d_9"><g><use style="stroke:#000;stroke-width:.8" x="390.863" y="307.584" xlink:href="#m11d3458cc9"/></g></g><g id="text_9"><g transform="translate(374.957041 322.182437)scale(0.1 -0.1)"><use xlink:href="#DejaVuSans-49"/><use x="63.623" xlink:href="#DejaVuSans-54"/><use x="127.246" xlink:href="#DejaVuSans-48"/><use x="190.869" xlink:href="#DejaVuSans-48"/><use x="254.492" xlink:href="#DejaVuSans-48"/></g></g></g><g id="text_10"><g transform="translate(190.615469 335.860562)scale(0.1 -0.1)"><defs><path id="DejaVuSans-98" d="M 48.6875 27.296875 Q 48.6875 37.203125 44.609375 42.84375 Q 40.53125 48.484375 33.40625 48.484375 Q 26.265625 48.484375 22.1875 42.84375 Q 18.109375 37.203125 18.109375 27.296875 Q 18.109375 17.390625 22.1875 11.75 Q 26.265625 6.109375 33.40625 6.109375 Q 40.53125 6.109375 44.609375 11.75 Q 48.6875 17.390625 48.6875 27.296875 z M 18.109375 46.390625 Q 20.953125 51.265625 25.265625 53.625 Q 29.59375 56 35.59375 56 Q 45.5625 56 51.78125 48.09375 Q 58.015625 40.1875 58.015625 27.296875 Q 58.015625 14.40625 51.78125 6.484375 Q 45.5625 -1.421875 35.59375 -1.421875 Q 29.59375 -1.421875 25.265625 0.953125 Q 20.953125 3.328125 18.109375 8.203125 L 18.109375 0 L 9.078125 0 L 9.078125 75.984375 L 18.109375 75.984375 z"/><path id="DejaVuSans-117" d="M 8.5 21.578125 L 8.5 54.6875 L 17.484375 54.6875 L 17.484375 21.921875 Q 17.484375 14.15625 20.5 10.265625 Q 23.53125 6.390625 29.59375 6.390625 Q 36.859375 6.390625 41.078125 11.03125 Q 45.3125 15.671875 45.3125 23.6875 L 45.3125 54.6875 L 54.296875 54.6875 L 54.296875 0 L 45.3125 0 L 45.3125 8.40625 Q 42.046875 3.421875 37.71875 1 Q 33.40625 -1.421875 27.6875 -1.421875 Q 18.265625 -1.421875 13.375 4.4375 Q 8.5 10.296875 8.5 21.578125 z M 31.109375 56 z"/><path id="DejaVuSans-102" d="M 37.109375 75.984375 L 37.109375 68.5 L 28.515625 68.5 Q 23.6875 68.5 21.796875 66.546875 Q 19.921875 64.59375 19.921875 59.515625 L 19.921875 54.6875 L 34.71875 54.6875 L 34.71875 47.703125 L 19.921875 47.703125 L 19.921875 0 L 10.890625 0 L 10.890625 47.703125 L 2.296875 47.703125 L 2.296875 54.6875 L 10.890625 54.6875 L 10.890625 58.5 Q 10.890625 67.625 15.140625 71.796875 Q 19.390625 75.984375 28.609375 75.984375 z"/><path id="DejaVuSans-101" d="M 56.203125 29.59375 L 56.203125 25.203125 L 14.890625 25.203125 Q 15.484375 15.921875 20.484375 11.0625 Q 25.484375 6.203125 34.421875 6.203125 Q 39.59375 6.203125 44.453125 7.46875 Q 49.3125 8.734375 54.109375 11.28125 L 54.109375 2.78125 Q 49.265625 0.734375 44.1875 -0.34375 Q 39.109375 -1.421875 33.890625 -1.421875 Q 20.796875 -1.421875 13.15625 6.1875 Q 5.515625 13.8125 5.515625 26.8125 Q 5.515625 40.234375 12.765625 48.109375 Q 20.015625 56 32.328125 56 Q 43.359375 56 49.78125 48.890625 Q 56.203125 41.796875 56.203125 29.59375 z M 47.21875 32.234375 Q 47.125 39.59375 43.09375 43.984375 Q 39.0625 48.390625 32.421875 48.390625 Q 24.90625 48.390625 20.390625 44.140625 Q 15.875 39.890625 15.1875 32.171875 z"/><path id="DejaVuSans-114" d="M 41.109375 46.296875 Q 39.59375 47.171875 37.8125 47.578125 Q 36.03125 48 33.890625 48 Q 26.265625 48 22.1875 43.046875 Q 18.109375 38.09375 18.109375 28.8125 L 18.109375 0 L 9.078125 0 L 9.078125 54.6875 L 18.109375 54.6875 L 18.109375 46.1875 Q 20.953125 51.171875 25.484375 53.578125 Q 30.03125 56 36.53125 56 Q 37.453125 56 38.578125 55.875 Q 39.703125 55.765625 41.0625 55.515625 z"/><path id="DejaVuSans-32"/><path id="DejaVuSans-115" d="M 44.28125 53.078125 L 44.28125 44.578125 Q 40.484375 46.53125 36.375 47.5 Q 32.28125 48.484375 27.875 48.484375 Q 21.1875 48.484375 17.84375 46.4375 Q 14.5 44.390625 14.5 40.28125 Q 14.5 37.15625 16.890625 35.375 Q 19.28125 33.59375 26.515625 31.984375 L 29.59375 31.296875 Q 39.15625 29.25 43.1875 25.515625 Q 47.21875 21.78125 47.21875 15.09375 Q 47.21875 7.46875 41.1875 3.015625 Q 35.15625 -1.421875 24.609375 -1.421875 Q 20.21875 -1.421875 15.453125 -0.5625 Q 10.6875 0.296875 5.421875 2 L 5.421875 11.28125 Q 10.40625 8.6875 15.234375 7.390625 Q 20.0625 6.109375 24.8125 6.109375 Q 31.15625 6.109375 34.5625 8.28125 Q 37.984375 10.453125 37.984375 14.40625 Q 37.984375 18.0625 35.515625 20.015625 Q 33.0625 21.96875 24.703125 23.78125 L 21.578125 24.515625 Q 13.234375 26.265625 9.515625 29.90625 Q 5.8125 33.546875 5.8125 39.890625 Q 5.8125 47.609375 11.28125 51.796875 Q 16.75 56 26.8125 56 Q 31.78125 56 36.171875 55.265625 Q 40.578125 54.546875 44.28125 53.078125 z"/><path id="DejaVuSans-105" d="M 9.421875 54.6875 L 18.40625 54.6875 L 18.40625 0 L 9.421875 0 z M 9.421875 75.984375 L 18.40625 75.984375 L 18.40625 64.59375 L 9.421875 64.59375 z"/><path id="DejaVuSans-122" d="M 5.515625 54.6875 L 48.1875 54.6875 L 48.1875 46.484375 L 14.40625 7.171875 L 48.1875 7.171875 L 48.1875 0 L 4.296875 0 L 4.296875 8.203125 L 38.09375 47.515625 L 5.515625 47.515625 z"/><path id="DejaVuSans-40" d="M 31 75.875 Q 24.46875 64.65625 21.28125 53.65625 Q 18.109375 42.671875 18.109375 31.390625 Q 18.109375 20.125 21.3125 9.0625 Q 24.515625 -2 31 -13.1875 L 23.1875 -13.1875 Q 15.875 -1.703125 12.234375 9.375 Q 8.59375 20.453125 8.59375 31.390625 Q 8.59375 42.28125 12.203125 53.3125 Q 15.828125 64.359375 23.1875 75.875 z"/><path id="DejaVuSans-121" d="M 32.171875 -5.078125 Q 28.375 -14.84375 24.75 -17.8125 Q 21.140625 -20.796875 15.09375 -20.796875 L 7.90625 -20.796875 L 7.90625 -13.28125 L 13.1875 -13.28125 Q 16.890625 -13.28125 18.9375 -11.515625 Q 21 -9.765625 23.484375 -3.21875 L 25.09375 0.875 L 2.984375 54.6875 L 12.5 54.6875 L 29.59375 11.921875 L 46.6875 54.6875 L 56.203125 54.6875 z"/><path id="DejaVuSans-116" d="M 18.3125 70.21875 L 18.3125 54.6875 L 36.8125 54.6875 L 36.8125 47.703125 L 18.3125 47.703125 L 18.3125 18.015625 Q 18.3125 11.328125 20.140625 9.421875 Q 21.96875 7.515625 27.59375 7.515625 L 36.8125 7.515625 L 36.8125 0 L 27.59375 0 Q 17.1875 0 13.234375 3.875 Q 9.28125 7.765625 9.28125 18.015625 L 9.28125 47.703125 L 2.6875 47.703125 L 2.6875 54.6875 L 9.28125 54.6875 L 9.28125 70.21875 z"/><path id="DejaVuSans-41" d="M 8.015625 75.875 L 15.828125 75.875 Q 23.140625 64.359375 26.78125 53.3125 Q 30.421875 42.28125 30.421875 31.390625 Q 30.421875 20.453125 26.78125 9.375 Q 23.140625 -1.703125 15.828125 -13.1875 L 8.015625 -13.1875 Q 14.5 -2 17.703125 9.0625 Q 20.90625 20.125 20.90625 31.390625 Q 20.90625 42.671875 17.703125 53.65625 Q 14.5 64.65625 8.015625 75.875 z"/></defs><use xlink:href="#DejaVuSans-98"/><use x="63.477" xlink:href="#DejaVuSans-117"/><use x="126.855" xlink:href="#DejaVuSans-102"/><use x="162.061" xlink:href="#DejaVuSans-102"/><use x="197.266" xlink:href="#DejaVuSans-101"/><use x="258.789" xlink:href="#DejaVuSans-114"/><use x="299.902" xlink:href="#DejaVuSans-32"/><use x="331.689" xlink:href="#DejaVuSans-115"/><use x="383.789" xlink:href="#DejaVuSans-105"/><use x="411.572" xlink:href="#DejaVuSans-122"/><use x="464.063" xlink:href="#DejaVuSans-101"/><use x="525.586" xlink:href="#DejaVuSans-32"/><use x="557.373" xlink:href="#DejaVuSans-40"/><use x="596.387" xlink:href="#DejaVuSans-98"/><use x="659.863" xlink:href="#DejaVuSans-121"/><use x="719.043" xlink:href="#DejaVuSans-116"/><use x="758.252" xlink:href="#DejaVuSans-101"/><use x="819.775" xlink:href="#DejaVuSans-115"/><use x="871.875" xlink:href="#DejaVuSans-41"/></g></g></g><g id="matplotlib.axis_2"><g id="ytick_1"><g id="line2d_10"><defs><path id="m46dfad9838" d="M 0 0 L -3.5 0" style="stroke:#000;stroke-width:.8"/></defs><g><use style="stroke:#000;stroke-width:.8" x="57.6" y="295.553" xlink:href="#m46dfad9838"/></g></g><g id="text_11"><g transform="translate(44.2375 299.352171)scale(0.1 -0.1)"><use xlink:href="#DejaVuSans-48"/></g></g></g><g id="ytick_2"><g id="line2d_11"><g><use style="stroke:#000;stroke-width:.8" x="57.6" y="254.958" xlink:href="#m46dfad9838"/></g></g><g id="text_12"><g transform="translate(25.15 258.756799)scale(0.1 -0.1)"><use xlink:href="#DejaVuSans-49"/><use x="63.623" xlink:href="#DejaVuSans-48"/><use x="127.246" xlink:href="#DejaVuSans-48"/><use x="190.869" xlink:href="#DejaVuSans-48"/></g></g></g><g id="ytick_3"><g id="line2d_12"><g><use style="stroke:#000;stroke-width:.8" x="57.6" y="214.362" xlink:href="#m46dfad9838"/></g></g><g id="text_13"><g transform="translate(25.15 218.161427)scale(0.1 -0.1)"><use xlink:href="#DejaVuSans-50"/><use x="63.623" xlink:href="#DejaVuSans-48"/><use x="127.246" xlink:href="#DejaVuSans-48"/><use x="190.869" xlink:href="#DejaVuSans-48"/></g></g></g><g id="ytick_4"><g id="line2d_13"><g><use style="stroke:#000;stroke-width:.8" x="57.6" y="173.767" xlink:href="#m46dfad9838"/></g></g><g id="text_14"><g transform="translate(25.15 177.566056)scale(0.1 -0.1)"><defs><path id="DejaVuSans-51" d="M 40.578125 39.3125 Q 47.65625 37.796875 51.625 33 Q 55.609375 28.21875 55.609375 21.1875 Q 55.609375 10.40625 48.1875 4.484375 Q 40.765625 -1.421875 27.09375 -1.421875 Q 22.515625 -1.421875 17.65625 -0.515625 Q 12.796875 0.390625 7.625 2.203125 L 7.625 11.71875 Q 11.71875 9.328125 16.59375 8.109375 Q 21.484375 6.890625 26.8125 6.890625 Q 36.078125 6.890625 40.9375 10.546875 Q 45.796875 14.203125 45.796875 21.1875 Q 45.796875 27.640625 41.28125 31.265625 Q 36.765625 34.90625 28.71875 34.90625 L 20.21875 34.90625 L 20.21875 43.015625 L 29.109375 43.015625 Q 36.375 43.015625 40.234375 45.921875 Q 44.09375 48.828125 44.09375 54.296875 Q 44.09375 59.90625 40.109375 62.90625 Q 36.140625 65.921875 28.71875 65.921875 Q 24.65625 65.921875 20.015625 65.03125 Q 15.375 64.15625 9.8125 62.3125 L 9.8125 71.09375 Q 15.4375 72.65625 20.34375 73.4375 Q 25.25 74.21875 29.59375 74.21875 Q 40.828125 74.21875 47.359375 69.109375 Q 53.90625 64.015625 53.90625 55.328125 Q 53.90625 49.265625 50.4375 45.09375 Q 46.96875 40.921875 40.578125 39.3125 z"/></defs><use xlink:href="#DejaVuSans-51"/><use x="63.623" xlink:href="#DejaVuSans-48"/><use x="127.246" xlink:href="#DejaVuSans-48"/><use x="190.869" xlink:href="#DejaVuSans-48"/></g></g></g><g id="ytick_5"><g id="line2d_14"><g><use style="stroke:#000;stroke-width:.8" x="57.6" y="133.171" xlink:href="#m46dfad9838"/></g></g><g id="text_15"><g transform="translate(25.15 136.970684)scale(0.1 -0.1)"><use xlink:href="#DejaVuSans-52"/><use x="63.623" xlink:href="#DejaVuSans-48"/><use x="127.246" xlink:href="#DejaVuSans-48"/><use x="190.869" xlink:href="#DejaVuSans-48"/></g></g></g><g id="ytick_6"><g id="line2d_15"><g><use style="stroke:#000;stroke-width:.8" x="57.6" y="92.576" xlink:href="#m46dfad9838"/></g></g><g id="text_16"><g transform="translate(25.15 96.375312)scale(0.1 -0.1)"><defs><path id="DejaVuSans-53" d="M 10.796875 72.90625 L 49.515625 72.90625 L 49.515625 64.59375 L 19.828125 64.59375 L 19.828125 46.734375 Q 21.96875 47.46875 24.109375 47.828125 Q 26.265625 48.1875 28.421875 48.1875 Q 40.625 48.1875 47.75 41.5 Q 54.890625 34.8125 54.890625 23.390625 Q 54.890625 11.625 47.5625 5.09375 Q 40.234375 -1.421875 26.90625 -1.421875 Q 22.3125 -1.421875 17.546875 -0.640625 Q 12.796875 0.140625 7.71875 1.703125 L 7.71875 11.625 Q 12.109375 9.234375 16.796875 8.0625 Q 21.484375 6.890625 26.703125 6.890625 Q 35.15625 6.890625 40.078125 11.328125 Q 45.015625 15.765625 45.015625 23.390625 Q 45.015625 31 40.078125 35.4375 Q 35.15625 39.890625 26.703125 39.890625 Q 22.75 39.890625 18.8125 39.015625 Q 14.890625 38.140625 10.796875 36.28125 z"/></defs><use xlink:href="#DejaVuSans-53"/><use x="63.623" xlink:href="#DejaVuSans-48"/><use x="127.246" xlink:href="#DejaVuSans-48"/><use x="190.869" xlink:href="#DejaVuSans-48"/></g></g></g><g id="ytick_7"><g id="line2d_16"><g><use style="stroke:#000;stroke-width:.8" x="57.6" y="51.981" xlink:href="#m46dfad9838"/></g></g><g id="text_17"><g transform="translate(25.15 55.77994)scale(0.1 -0.1)"><use xlink:href="#DejaVuSans-54"/><use x="63.623" xlink:href="#DejaVuSans-48"/><use x="127.246" xlink:href="#DejaVuSans-48"/><use x="190.869" xlink:href="#DejaVuSans-48"/></g></g></g><g id="text_18"><g transform="translate(19.070312 197.100656)rotate(-90)scale(0.1 -0.1)"><defs><path id="DejaVuSans-109" d="M 52 44.1875 Q 55.375 50.25 60.0625 53.125 Q 64.75 56 71.09375 56 Q 79.640625 56 84.28125 50.015625 Q 88.921875 44.046875 88.921875 33.015625 L 88.921875 0 L 79.890625 0 L 79.890625 32.71875 Q 79.890625 40.578125 77.09375 44.375 Q 74.3125 48.1875 68.609375 48.1875 Q 61.625 48.1875 57.5625 43.546875 Q 53.515625 38.921875 53.515625 30.90625 L 53.515625 0 L 44.484375 0 L 44.484375 32.71875 Q 44.484375 40.625 41.703125 44.40625 Q 38.921875 48.1875 33.109375 48.1875 Q 26.21875 48.1875 22.15625 43.53125 Q 18.109375 38.875 18.109375 30.90625 L 18.109375 0 L 9.078125 0 L 9.078125 54.6875 L 18.109375 54.6875 L 18.109375 46.1875 Q 21.1875 51.21875 25.484375 53.609375 Q 29.78125 56 35.6875 56 Q 41.65625 56 45.828125 52.96875 Q 50 49.953125 52 44.1875 z"/><path id="DejaVuSans-181" d="M 8.5 -20.796875 L 8.5 54.6875 L 17.484375 54.6875 L 17.484375 20.703125 Q 17.484375 13.625 20.84375 10 Q 24.21875 6.390625 30.8125 6.390625 Q 38.03125 6.390625 41.671875 10.484375 Q 45.3125 14.59375 45.3125 22.796875 L 45.3125 54.6875 L 54.296875 54.6875 L 54.296875 12.59375 Q 54.296875 9.671875 55.140625 8.28125 Q 56 6.890625 57.8125 6.890625 Q 58.25 6.890625 59.03125 7.15625 Q 59.8125 7.421875 61.1875 8.015625 L 61.1875 0.78125 Q 59.1875 -0.34375 57.390625 -0.875 Q 55.609375 -1.421875 53.90625 -1.421875 Q 50.53125 -1.421875 48.53125 0.484375 Q 46.53125 2.390625 45.796875 6.296875 Q 43.359375 2.4375 39.8125 0.5 Q 36.28125 -1.421875 31.5 -1.421875 Q 26.515625 -1.421875 23.015625 0.484375 Q 19.53125 2.390625 17.484375 6.203125 L 17.484375 -20.796875 z"/></defs><use xlink:href="#DejaVuSans-116"/><use x="39.209" xlink:href="#DejaVuSans-105"/><use x="66.992" xlink:href="#DejaVuSans-109"/><use x="164.404" xlink:href="#DejaVuSans-101"/><use x="225.928" xlink:href="#DejaVuSans-32"/><use x="257.715" xlink:href="#DejaVuSans-40"/><use x="296.729" xlink:href="#DejaVuSans-181"/><use x="360.352" xlink:href="#DejaVuSans-115"/><use x="412.451" xlink:href="#DejaVuSans-41"/></g></g></g><g id="line2d_17"><path d="M 73.832727 286.167303 L 74.468059 285.830361 L 75.738723 285.257966 L 78.28005 284.271499 L 83.362704 281.945384 L 93.528013 278.29586 L 113.85863 270.237679 L 134.189247 262.187616 L 154.519865 254.133495 L 174.850482 246.079373 L 195.181099 238.021191 L 215.511717 229.971129 L 235.842334 221.917007 L 256.172951 213.862886 L 276.503569 205.804704 L 296.834186 197.754642 L 317.164803 189.70052 L 337.495421 181.646398 L 357.826038 173.588217 L 378.156655 165.538155 L 398.487273 153.335186" clip-path="url(#p63e6cdb9c9)" style="fill:none;stroke:#1f77b4;stroke-linecap:square;stroke-width:1.5"/></g><g id="line2d_18"><path d="M 73.832727 286.167303 L 74.468059 285.972445 L 75.738723 284.783 L 78.28005 283.224138 L 83.362704 280.106414 L 93.528013 273.870964 L 113.85863 261.400066 L 134.189247 242.701838 L 154.519865 236.45827 L 174.850482 213.611194 L 195.181099 211.516473 L 215.511717 199.045575 L 235.842334 169.96305 L 256.172951 155.40555 L 276.503569 140.864288 L 296.834186 149.161982 L 317.164803 111.757406 L 337.495421 124.220185 L 357.826038 82.658644 L 378.156655 68.117381 L 398.487273 53.568" clip-path="url(#p63e6cdb9c9)" style="fill:none;stroke:#ff7f0e;stroke-linecap:square;stroke-width:1.5"/></g><g id="line2d_19"><path d="M 73.832727 286.228196 L 74.468059 286.10235 L 75.738723 285.176776 L 78.28005 284.011688 L 83.362704 281.669335 L 93.528013 276.996808 L 113.85863 267.635515 L 134.189247 258.282342 L 154.519865 248.91293 L 174.850482 239.555697 L 195.181099 230.194404 L 215.511717 220.833111 L 235.842334 211.488056 L 256.172951 202.134883 L 276.503569 192.814185 L 296.834186 183.461012 L 317.164803 174.111897 L 337.495421 164.758724 L 357.826038 155.40555 L 378.156655 146.044257 L 398.487273 136.691084" clip-path="url(#p63e6cdb9c9)" style="fill:none;stroke:#2ca02c;stroke-linecap:square;stroke-width:1.5"/></g><g id="line2d_20"><path d="M 73.832727 286.260672 L 74.468059 286.163243 L 75.738723 285.294502 L 78.28005 284.25932 L 83.362704 282.176778 L 93.528013 278.027931 L 113.85863 269.718058 L 134.189247 255.176796 L 154.519865 244.78438 L 174.850482 244.772202 L 195.181099 230.222821 L 215.511717 228.148397 L 235.842334 203.21472 L 256.172951 202.163299 L 276.503569 203.202541 L 296.834186 194.888609 L 317.164803 186.578736 L 337.495421 178.264804 L 357.826038 140.860228 L 378.156655 146.044257 L 398.487273 136.691084" clip-path="url(#p63e6cdb9c9)" style="fill:none;stroke:#d62728;stroke-linecap:square;stroke-width:1.5"/></g><g id="line2d_21"><path d="M 73.832727 295.488 L 74.468059 295.423047 L 75.738723 295.293142 L 78.28005 295.033332 L 83.362704 294.513711 L 93.528013 293.47447 L 113.85863 291.395987 L 134.189247 289.317503 L 154.519865 287.23902 L 174.850482 285.160537 L 195.181099 283.082054 L 215.511717 281.003571 L 235.842334 278.925088 L 256.172951 276.846605 L 276.503569 274.768122 L 296.834186 272.689639 L 317.164803 270.611156 L 337.495421 268.532673 L 357.826038 266.45419 L 378.156655 264.375707 L 398.487273 262.297224" clip-path="url(#p63e6cdb9c9)" style="fill:none;stroke:#9467bd;stroke-linecap:square;stroke-width:1.5"/></g><g id="patch_3"><path d="M 57.6 307.584 L 57.6 41.472" style="fill:none;stroke:#000;stroke-linecap:square;stroke-linejoin:miter;stroke-width:.8"/></g><g id="patch_4"><path d="M 414.72 307.584 L 414.72 41.472" style="fill:none;stroke:#000;stroke-linecap:square;stroke-linejoin:miter;stroke-width:.8"/></g><g id="patch_5"><path d="M 57.6 307.584 L 414.72 307.584" style="fill:none;stroke:#000;stroke-linecap:square;stroke-linejoin:miter;stroke-width:.8"/></g><g id="patch_6"><path d="M 57.6 41.472 L 414.72 41.472" style="fill:none;stroke:#000;stroke-linecap:square;stroke-linejoin:miter;stroke-width:.8"/></g><g id="text_19"><g transform="translate(145.995937 35.472)scale(0.12 -0.12)"><defs><path id="DejaVuSans-66" d="M 19.671875 34.8125 L 19.671875 8.109375 L 35.5 8.109375 Q 43.453125 8.109375 47.28125 11.40625 Q 51.125 14.703125 51.125 21.484375 Q 51.125 28.328125 47.28125 31.5625 Q 43.453125 34.8125 35.5 34.8125 z M 19.671875 64.796875 L 19.671875 42.828125 L 34.28125 42.828125 Q 41.5 42.828125 45.03125 45.53125 Q 48.578125 48.25 48.578125 53.8125 Q 48.578125 59.328125 45.03125 62.0625 Q 41.5 64.796875 34.28125 64.796875 z M 9.8125 72.90625 L 35.015625 72.90625 Q 46.296875 72.90625 52.390625 68.21875 Q 58.5 63.53125 58.5 54.890625 Q 58.5 48.1875 55.375 44.234375 Q 52.25 40.28125 46.1875 39.3125 Q 53.46875 37.75 57.5 32.78125 Q 61.53125 27.828125 61.53125 20.40625 Q 61.53125 10.640625 54.890625 5.3125 Q 48.25 0 35.984375 0 L 9.8125 0 z"/><path id="DejaVuSans-97" d="M 34.28125 27.484375 Q 23.390625 27.484375 19.1875 25 Q 14.984375 22.515625 14.984375 16.5 Q 14.984375 11.71875 18.140625 8.90625 Q 21.296875 6.109375 26.703125 6.109375 Q 34.1875 6.109375 38.703125 11.40625 Q 43.21875 16.703125 43.21875 25.484375 L 43.21875 27.484375 z M 52.203125 31.203125 L 52.203125 0 L 43.21875 0 L 43.21875 8.296875 Q 40.140625 3.328125 35.546875 0.953125 Q 30.953125 -1.421875 24.3125 -1.421875 Q 15.921875 -1.421875 10.953125 3.296875 Q 6 8.015625 6 15.921875 Q 6 25.140625 12.171875 29.828125 Q 18.359375 34.515625 30.609375 34.515625 L 43.21875 34.515625 L 43.21875 35.40625 Q 43.21875 41.609375 39.140625 45 Q 35.0625 48.390625 27.6875 48.390625 Q 23 48.390625 18.546875 47.265625 Q 14.109375 46.140625 10.015625 43.890625 L 10.015625 52.203125 Q 14.9375 54.109375 19.578125 55.046875 Q 24.21875 56 28.609375 56 Q 40.484375 56 46.34375 49.84375 Q 52.203125 43.703125 52.203125 31.203125 z"/><path id="DejaVuSans-110" d="M 54.890625 33.015625 L 54.890625 0 L 45.90625 0 L 45.90625 32.71875 Q 45.90625 40.484375 42.875 44.328125 Q 39.84375 48.1875 33.796875 48.1875 Q 26.515625 48.1875 22.3125 43.546875 Q 18.109375 38.921875 18.109375 30.90625 L 18.109375 0 L 9.078125 0 L 9.078125 54.6875 L 18.109375 54.6875 L 18.109375 46.1875 Q 21.34375 51.125 25.703125 53.5625 Q 30.078125 56 35.796875 56 Q 45.21875 56 50.046875 50.171875 Q 54.890625 44.34375 54.890625 33.015625 z"/><path id="DejaVuSans-100" d="M 45.40625 46.390625 L 45.40625 75.984375 L 54.390625 75.984375 L 54.390625 0 L 45.40625 0 L 45.40625 8.203125 Q 42.578125 3.328125 38.25 0.953125 Q 33.9375 -1.421875 27.875 -1.421875 Q 17.96875 -1.421875 11.734375 6.484375 Q 5.515625 14.40625 5.515625 27.296875 Q 5.515625 40.1875 11.734375 48.09375 Q 17.96875 56 27.875 56 Q 33.9375 56 38.25 53.625 Q 42.578125 51.265625 45.40625 46.390625 z M 14.796875 27.296875 Q 14.796875 17.390625 18.875 11.75 Q 22.953125 6.109375 30.078125 6.109375 Q 37.203125 6.109375 41.296875 11.75 Q 45.40625 17.390625 45.40625 27.296875 Q 45.40625 37.203125 41.296875 42.84375 Q 37.203125 48.484375 30.078125 48.484375 Q 22.953125 48.484375 18.875 42.84375 Q 14.796875 37.203125 14.796875 27.296875 z"/><path id="DejaVuSans-119" d="M 4.203125 54.6875 L 13.1875 54.6875 L 24.421875 12.015625 L 35.59375 54.6875 L 46.1875 54.6875 L 57.421875 12.015625 L 68.609375 54.6875 L 77.59375 54.6875 L 63.28125 0 L 52.6875 0 L 40.921875 44.828125 L 29.109375 0 L 18.5 0 z"/><path id="DejaVuSans-104" d="M 54.890625 33.015625 L 54.890625 0 L 45.90625 0 L 45.90625 32.71875 Q 45.90625 40.484375 42.875 44.328125 Q 39.84375 48.1875 33.796875 48.1875 Q 26.515625 48.1875 22.3125 43.546875 Q 18.109375 38.921875 18.109375 30.90625 L 18.109375 0 L 9.078125 0 L 9.078125 75.984375 L 18.109375 75.984375 L 18.109375 46.1875 Q 21.34375 51.125 25.703125 53.5625 Q 30.078125 56 35.796875 56 Q 45.21875 56 50.046875 50.171875 Q 54.890625 44.34375 54.890625 33.015625 z"/><path id="DejaVuSans-99" d="M 48.78125 52.59375 L 48.78125 44.1875 Q 44.96875 46.296875 41.140625 47.34375 Q 37.3125 48.390625 33.40625 48.390625 Q 24.65625 48.390625 19.8125 42.84375 Q 14.984375 37.3125 14.984375 27.296875 Q 14.984375 17.28125 19.8125 11.734375 Q 24.65625 6.203125 33.40625 6.203125 Q 37.3125 6.203125 41.140625 7.25 Q 44.96875 8.296875 48.78125 10.40625 L 48.78125 2.09375 Q 45.015625 0.34375 40.984375 -0.53125 Q 36.96875 -1.421875 32.421875 -1.421875 Q 20.0625 -1.421875 12.78125 6.34375 Q 5.515625 14.109375 5.515625 27.296875 Q 5.515625 40.671875 12.859375 48.328125 Q 20.21875 56 33.015625 56 Q 37.15625 56 41.109375 55.140625 Q 45.0625 54.296875 48.78125 52.59375 z"/><path id="DejaVuSans-107" d="M 9.078125 75.984375 L 18.109375 75.984375 L 18.109375 31.109375 L 44.921875 54.6875 L 56.390625 54.6875 L 27.390625 29.109375 L 57.625 0 L 45.90625 0 L 18.109375 26.703125 L 18.109375 0 L 9.078125 0 z"/><path id="DejaVuSans-44" d="M 11.71875 12.40625 L 22.015625 12.40625 L 22.015625 4 L 14.015625 -11.625 L 7.71875 -11.625 L 11.71875 4 z"/><path id="DejaVuSans-108" d="M 9.421875 75.984375 L 18.40625 75.984375 L 18.40625 0 L 9.421875 0 z"/></defs><use xlink:href="#DejaVuSans-66"/><use x="68.604" xlink:href="#DejaVuSans-97"/><use x="129.883" xlink:href="#DejaVuSans-110"/><use x="193.262" xlink:href="#DejaVuSans-100"/><use x="256.738" xlink:href="#DejaVuSans-119"/><use x="338.525" xlink:href="#DejaVuSans-105"/><use x="366.309" xlink:href="#DejaVuSans-100"/><use x="429.785" xlink:href="#DejaVuSans-116"/><use x="468.994" xlink:href="#DejaVuSans-104"/><use x="532.373" xlink:href="#DejaVuSans-32"/><use x="564.16" xlink:href="#DejaVuSans-98"/><use x="627.637" xlink:href="#DejaVuSans-101"/><use x="689.16" xlink:href="#DejaVuSans-110"/><use x="752.539" xlink:href="#DejaVuSans-99"/><use x="807.52" xlink:href="#DejaVuSans-104"/><use x="870.898" xlink:href="#DejaVuSans-109"/><use x="968.311" xlink:href="#DejaVuSans-97"/><use x="1029.59" xlink:href="#DejaVuSans-114"/><use x="1070.703" xlink:href="#DejaVuSans-107"/><use x="1128.613" xlink:href="#DejaVuSans-44"/><use x="1160.4" xlink:href="#DejaVuSans-32"/><use x="1192.188" xlink:href="#DejaVuSans-99"/><use x="1247.168" xlink:href="#DejaVuSans-121"/><use x="1306.348" xlink:href="#DejaVuSans-99"/><use x="1361.328" xlink:href="#DejaVuSans-108"/><use x="1389.111" xlink:href="#DejaVuSans-101"/><use x="1450.635" xlink:href="#DejaVuSans-115"/></g></g><g id="legend_1"><g id="patch_7"><path d="M 64.6 122.862625 L 239.396875 122.862625 Q 241.396875 122.862625 241.396875 120.862625 L 241.396875 48.472 Q 241.396875 46.472 239.396875 46.472 L 64.6 46.472 Q 62.6 46.472 62.6 48.472 L 62.6 120.862625 Q 62.6 122.862625 64.6 122.862625 z" style="fill:#fff;opacity:.8;stroke:#ccc;stroke-linejoin:miter"/></g><g id="line2d_22"><path d="M 66.6 54.570438 L 86.6 54.570438" style="fill:none;stroke:#1f77b4;stroke-linecap:square;stroke-width:1.5"/></g><g id="text_20"><g transform="translate(94.6 58.070438)scale(0.1 -0.1)"><defs><path id="DejaVuSans-112" d="M 18.109375 8.203125 L 18.109375 -20.796875 L 9.078125 -20.796875 L 9.078125 54.6875 L 18.109375 54.6875 L 18.109375 46.390625 Q 20.953125 51.265625 25.265625 53.625 Q 29.59375 56 35.59375 56 Q 45.5625 56 51.78125 48.09375 Q 58.015625 40.1875 58.015625 27.296875 Q 58.015625 14.40625 51.78125 6.484375 Q 45.5625 -1.421875 35.59375 -1.421875 Q 29.59375 -1.421875 25.265625 0.953125 Q 20.953125 3.328125 18.109375 8.203125 z M 48.6875 27.296875 Q 48.6875 37.203125 44.609375 42.84375 Q 40.53125 48.484375 33.40625 48.484375 Q 26.265625 48.484375 22.1875 42.84375 Q 18.109375 37.203125 18.109375 27.296875 Q 18.109375 17.390625 22.1875 11.75 Q 26.265625 6.109375 33.40625 6.109375 Q 40.53125 6.109375 44.609375 11.75 Q 48.6875 17.390625 48.6875 27.296875 z"/></defs><use xlink:href="#DejaVuSans-109"/><use x="97.412" xlink:href="#DejaVuSans-101"/><use x="158.936" xlink:href="#DejaVuSans-109"/><use x="256.348" xlink:href="#DejaVuSans-99"/><use x="311.328" xlink:href="#DejaVuSans-112"/><use x="374.805" xlink:href="#DejaVuSans-121"/><use x="433.984" xlink:href="#DejaVuSans-32"/><use x="465.771" xlink:href="#DejaVuSans-98"/><use x="529.248" xlink:href="#DejaVuSans-97"/><use x="590.527" xlink:href="#DejaVuSans-110"/><use x="653.906" xlink:href="#DejaVuSans-100"/><use x="717.383" xlink:href="#DejaVuSans-119"/><use x="799.17" xlink:href="#DejaVuSans-105"/><use x="826.953" xlink:href="#DejaVuSans-100"/><use x="890.43" xlink:href="#DejaVuSans-116"/><use x="929.639" xlink:href="#DejaVuSans-104"/><use x="993.018" xlink:href="#DejaVuSans-32"/><use x="1024.805" xlink:href="#DejaVuSans-116"/><use x="1064.014" xlink:href="#DejaVuSans-101"/><use x="1125.537" xlink:href="#DejaVuSans-115"/><use x="1177.637" xlink:href="#DejaVuSans-116"/></g></g><g id="line2d_24"><path d="M 66.6 69.248563 L 86.6 69.248563" style="fill:none;stroke:#ff7f0e;stroke-linecap:square;stroke-width:1.5"/></g><g id="text_21"><g transform="translate(94.6 72.748563)scale(0.1 -0.1)"><defs><path id="DejaVuSans-111" d="M 30.609375 48.390625 Q 23.390625 48.390625 19.1875 42.75 Q 14.984375 37.109375 14.984375 27.296875 Q 14.984375 17.484375 19.15625 11.84375 Q 23.34375 6.203125 30.609375 6.203125 Q 37.796875 6.203125 41.984375 11.859375 Q 46.1875 17.53125 46.1875 27.296875 Q 46.1875 37.015625 41.984375 42.703125 Q 37.796875 48.390625 30.609375 48.390625 z M 30.609375 56 Q 42.328125 56 49.015625 48.375 Q 55.71875 40.765625 55.71875 27.296875 Q 55.71875 13.875 49.015625 6.21875 Q 42.328125 -1.421875 30.609375 -1.421875 Q 18.84375 -1.421875 12.171875 6.21875 Q 5.515625 13.875 5.515625 27.296875 Q 5.515625 40.765625 12.171875 48.375 Q 18.84375 56 30.609375 56 z"/></defs><use xlink:href="#DejaVuSans-109"/><use x="97.412" xlink:href="#DejaVuSans-97"/><use x="158.691" xlink:href="#DejaVuSans-110"/><use x="222.07" xlink:href="#DejaVuSans-117"/><use x="285.449" xlink:href="#DejaVuSans-97"/><use x="346.729" xlink:href="#DejaVuSans-108"/><use x="374.512" xlink:href="#DejaVuSans-32"/><use x="406.299" xlink:href="#DejaVuSans-99"/><use x="461.279" xlink:href="#DejaVuSans-111"/><use x="522.461" xlink:href="#DejaVuSans-112"/><use x="585.938" xlink:href="#DejaVuSans-121"/><use x="645.117" xlink:href="#DejaVuSans-32"/><use x="676.904" xlink:href="#DejaVuSans-98"/><use x="740.381" xlink:href="#DejaVuSans-97"/><use x="801.66" xlink:href="#DejaVuSans-110"/><use x="865.039" xlink:href="#DejaVuSans-100"/><use x="928.516" xlink:href="#DejaVuSans-119"/><use x="1010.303" xlink:href="#DejaVuSans-105"/><use x="1038.086" xlink:href="#DejaVuSans-100"/><use x="1101.563" xlink:href="#DejaVuSans-116"/><use x="1140.771" xlink:href="#DejaVuSans-104"/><use x="1204.15" xlink:href="#DejaVuSans-32"/><use x="1235.938" xlink:href="#DejaVuSans-116"/><use x="1275.146" xlink:href="#DejaVuSans-101"/><use x="1336.67" xlink:href="#DejaVuSans-115"/><use x="1388.77" xlink:href="#DejaVuSans-116"/></g></g><g id="line2d_26"><path d="M 66.6 83.926688 L 86.6 83.926688" style="fill:none;stroke:#2ca02c;stroke-linecap:square;stroke-width:1.5"/></g><g id="text_22"><g transform="translate(94.6 87.426688)scale(0.1 -0.1)"><use xlink:href="#DejaVuSans-114"/><use x="38.863" xlink:href="#DejaVuSans-101"/><use x="100.387" xlink:href="#DejaVuSans-97"/><use x="161.666" xlink:href="#DejaVuSans-100"/><use x="225.143" xlink:href="#DejaVuSans-32"/><use x="256.93" xlink:href="#DejaVuSans-98"/><use x="320.406" xlink:href="#DejaVuSans-97"/><use x="381.686" xlink:href="#DejaVuSans-110"/><use x="445.064" xlink:href="#DejaVuSans-100"/><use x="508.541" xlink:href="#DejaVuSans-119"/><use x="590.328" xlink:href="#DejaVuSans-105"/><use x="618.111" xlink:href="#DejaVuSans-100"/><use x="681.588" xlink:href="#DejaVuSans-116"/><use x="720.797" xlink:href="#DejaVuSans-104"/><use x="784.176" xlink:href="#DejaVuSans-32"/><use x="815.963" xlink:href="#DejaVuSans-116"/><use x="855.172" xlink:href="#DejaVuSans-101"/><use x="916.695" xlink:href="#DejaVuSans-115"/><use x="968.795" xlink:href="#DejaVuSans-116"/></g></g><g id="line2d_28"><path d="M 66.6 98.604813 L 86.6 98.604813" style="fill:none;stroke:#d62728;stroke-linecap:square;stroke-width:1.5"/></g><g id="text_23"><g transform="translate(94.6 102.104813)scale(0.1 -0.1)"><use xlink:href="#DejaVuSans-119"/><use x="81.787" xlink:href="#DejaVuSans-114"/><use x="122.9" xlink:href="#DejaVuSans-105"/><use x="150.684" xlink:href="#DejaVuSans-116"/><use x="189.893" xlink:href="#DejaVuSans-101"/><use x="251.416" xlink:href="#DejaVuSans-32"/><use x="283.203" xlink:href="#DejaVuSans-98"/><use x="346.68" xlink:href="#DejaVuSans-97"/><use x="407.959" xlink:href="#DejaVuSans-110"/><use x="471.338" xlink:href="#DejaVuSans-100"/><use x="534.814" xlink:href="#DejaVuSans-119"/><use x="616.602" xlink:href="#DejaVuSans-105"/><use x="644.385" xlink:href="#DejaVuSans-100"/><use x="707.861" xlink:href="#DejaVuSans-116"/><use x="747.07" xlink:href="#DejaVuSans-104"/><use x="810.449" xlink:href="#DejaVuSans-32"/><use x="842.236" xlink:href="#DejaVuSans-116"/><use x="881.445" xlink:href="#DejaVuSans-101"/><use x="942.969" xlink:href="#DejaVuSans-115"/><use x="995.068" xlink:href="#DejaVuSans-116"/></g></g><g id="line2d_30"><path d="M 66.6 113.282938 L 86.6 113.282938" style="fill:none;stroke:#9467bd;stroke-linecap:square;stroke-width:1.5"/></g><g id="text_24"><g transform="translate(94.6 116.782938)scale(0.1 -0.1)"><use xlink:href="#DejaVuSans-105"/><use x="27.783" xlink:href="#DejaVuSans-100"/><use x="91.26" xlink:href="#DejaVuSans-101"/><use x="152.783" xlink:href="#DejaVuSans-97"/><use x="214.063" xlink:href="#DejaVuSans-108"/><use x="241.846" xlink:href="#DejaVuSans-32"/><use x="273.633" xlink:href="#DejaVuSans-101"/><use x="335.156" xlink:href="#DejaVuSans-115"/><use x="387.256" xlink:href="#DejaVuSans-116"/><use x="426.465" xlink:href="#DejaVuSans-105"/><use x="454.248" xlink:href="#DejaVuSans-109"/><use x="551.66" xlink:href="#DejaVuSans-97"/><use x="612.939" xlink:href="#DejaVuSans-116"/><use x="652.148" xlink:href="#DejaVuSans-101"/><use x="713.672" xlink:href="#DejaVuSans-100"/></g></g></g></g></g><defs><clipPath id="p63e6cdb9c9"><rect width="357.12" height="266.112" x="57.6" y="41.472"/></clipPath></defs></svg>