<svg xmlns="http://www.w3.org/2000/svg" xmlns:xlink="http://www.w3.org/1999/xlink" xmlns:lucid="lucid" width="440" height="320"><g transform="translate(-420 -260)" lucid:page-tab-id="0_0"><path d="M520 320c0 22.1-17.9 40-40 40s-40-17.9-40-40 17.9-40 40-40 40 17.9 40 40z" stroke="#5e5e5e" stroke-width="3" fill="#fff"/><use xlink:href="#a" transform="matrix(1,0,0,1,445,285) translate(6.697530864197532 39.65277777777778)"/><path d="M680 520c0 22.1-17.9 40-40 40s-40-17.9-40-40 17.9-40 40-40 40 17.9 40 40z" stroke="#5e5e5e" stroke-width="3" fill="#fff"/><use xlink:href="#b" transform="matrix(1,0,0,1,605,485) translate(2.962962962962969 39.65277777777778)"/><path d="M840 320c0 22.1-17.9 40-40 40s-40-17.9-40-40 17.9-40 40-40 40 17.9 40 40z" stroke="#5e5e5e" stroke-width="3" fill="#fff"/><use xlink:href="#c" transform="matrix(1,0,0,1,765,285) translate(2.345679012345684 39.65277777777778)"/><path d="M585.3 374.46l3.43 11.47 16.82 62.93 3.46 9.97 3.18 8.02.07.15-1.83.8-.08-.18-3.2-8.1-3.5-10.07-16.83-62.97-3.4-11.4-.55-1.56h2.1zm-60.17-55.4l3.33.22 3.06.32 2.84.42 2.65.5 2.5.6 2.35.65 2.23.72 2.13.78 2.05.86 1.95.92 1.9 1 1.83 1.05 1.8 1.14 1.74 1.22 1.72 1.3 1.68 1.4 1.68 1.52 1.66 1.63 1.67 1.78 1.66 1.94 1.68 2.12 1.7 2.35 1.75 2.6 1.78 2.97 1.7 3.1h-2.27l-1.15-2.1-1.75-2.88-1.7-2.57-1.65-2.28-1.63-2.06-1.62-1.88-1.6-1.7-1.6-1.6-1.63-1.44-1.63-1.35-1.65-1.25-1.7-1.17-1.7-1.08-1.77-1.02-1.8-.95-1.9-.88-1.96-.83-2.04-.76-2.15-.7-2.27-.63-2.4-.56-2.57-.5-2.76-.4-2.98-.32-3.25-.2-2.57-.06.04-2z" fill="#5e5e5e"/><path d="M522.55 319.02l-.04 2-1.06-.02.06-.98-.03-1.02zM618 481.13l-10.4-10.8 8.34-4.06z" fill="#5e5e5e"/><path d="M619.43 484.04l-13.5-14 10.8-5.27zm-10.15-13.42l7.32 7.6-1.46-10.45z" fill="#5e5e5e"/><use xlink:href="#d" transform="matrix(1,0,0,1,524.7851038726716,352.18224247949627) translate(0 14.222222222222223)"/><use xlink:href="#e" transform="matrix(1,0,0,1,524.7851038726716,352.18224247949627) translate(55.11111111111112 14.222222222222223)"/><path d="M697.65 375.14l-13.73 51.95-4.47 15.34-3.52 10.38-3.18 8.24-3.02 6.94-2.94 6.04-2.9 5.38-2.36 3.97-1.72-1.03 2.34-3.94 2.85-5.3 2.9-5.97 3-6.86 3.15-8.16 3.5-10.3 4.44-15.3 13.73-51.97.48-1.42h2.12zm42.82-51.9l-1.8.52-2.08.7-2 .74-1.9.82-1.8.87-1.77.93-1.7 1-1.67 1.08-1.63 1.16-1.6 1.23-1.57 1.32-1.57 1.43-1.56 1.55-1.56 1.7-1.57 1.83-1.57 2.03-1.6 2.26-1.66 2.52-1.7 2.87-1.08 2h-2.28l1.6-2.98 1.75-2.93 1.7-2.6 1.66-2.33 1.63-2.1 1.62-1.9 1.62-1.76 1.6-1.6 1.64-1.48 1.64-1.4 1.66-1.27 1.7-1.2 1.73-1.12 1.78-1.04 1.84-1 1.88-.9 1.98-.85 2.06-.78 2.16-.72 1.84-.53z" fill="#5e5e5e"/><path d="M661.55 483.37l-.54.9-1.13-.72-.6-.27.56-.94zM755.3 320.4l-13.6 6.36-1.14-9.2z" fill="#5e5e5e"/><path d="M758.5 320l-17.62 8.25-1.48-11.93zm-15.97 5.27l9.55-4.47-10.36-2z" fill="#5e5e5e"/><use xlink:href="#f" transform="matrix(1,0,0,1,647.3391150460807,351.81238887415054) translate(0 14.222222222222223)"/><use xlink:href="#g" transform="matrix(1,0,0,1,647.3391150460807,351.81238887415054) translate(34.518518518518526 14.222222222222223)"/><path d="M777.6 460.5l-3.15 5.47-3.22 5.08-3.28 4.7-3.3 4.38-3.36 4.05-3.4 3.76-3.4 3.48-3.44 3.23-3.47 3-3.5 2.77-3.53 2.56-3.57 2.37-3.6 2.18-3.65 2-3.7 1.85-3.77 1.67-3.84 1.52-3.9 1.36-4 1.2-4.1 1.06-4.22.9-2.14.35-.33-1.97 2.1-.36 4.13-.87 4-1.04 3.93-1.17 3.85-1.33 3.75-1.5 3.7-1.63 3.62-1.8 3.58-1.97 3.53-2.14 3.5-2.32 3.46-2.52 3.42-2.72 3.4-2.93 3.38-3.18 3.35-3.43 3.32-3.7 3.3-3.98 3.27-4.3 3.22-4.66 3.18-5 3.1-5.4 2.5-4.74h2.25zm23.38-97.98l-.2 9.02-.6 9.92-1.04 9.73-1.4 9.42-1.72 9.06-2.02 8.66-2.3 8.2-2.24 6.93h-2.1l2.43-7.5 2.26-8.13 2-8.57 1.72-9 1.38-9.34 1-9.63.63-9.85.18-8.97z" fill="#5e5e5e"/><path d="M799.98 361.5l1.02-.03-.02 1.08-2-.04.02-1.06zM699.33 523.16l-14.6-3.43 13.83-5.8z" fill="#5e5e5e"/><path d="M700.44 524.45L681.5 520l17.94-7.53zm-12.5-5l10.28 2.43-.55-6.5z" fill="#5e5e5e"/><use xlink:href="#d" transform="matrix(1,0,0,1,732.1452716772851,433.46699153516863) translate(0 14.222222222222223)"/><use xlink:href="#h" transform="matrix(1,0,0,1,732.1452716772851,433.46699153516863) translate(55.11111111111112 14.222222222222223)"/><path d="M494 437.25l2.75 6.94 2.88 6.46 3 6.03 3.07 5.6 3.14 5.18 3.2 4.83 3.25 4.48 3.27 4.14 3.3 3.84 3.35 3.55 3.37 3.3 3.38 3.06 3.4 2.83 3.46 2.6 3.47 2.42 3.53 2.23 3.55 2.05 3.6 1.9 3.66 1.7 3.73 1.57 3.8 1.4 3.86 1.27 3.97 1.1 4.07.96 4.2.8 4.3.64 4.47.47 4.64.3 3.84.08-.04 2-3.9-.08-4.7-.3-4.55-.48-4.4-.65-4.28-.8-4.15-.98-4.05-1.14-3.95-1.3-3.87-1.43-3.8-1.6-3.73-1.75-3.68-1.93-3.63-2.1-3.6-2.26-3.54-2.48-3.5-2.66-3.5-2.88-3.44-3.1-3.43-3.37-3.4-3.6-3.37-3.9-3.33-4.22-3.3-4.53-3.25-4.9-3.2-5.26-3.1-5.7-3.03-6.1-2.92-6.54-2.77-7.02-1.85-5.3h2.12zm-11.7-51.1l1.18 9.5 1.56 9.17 1.37 6.5h-2.03l-1.3-6.13-1.56-9.26-1.2-9.6-.53-6.27 2-.17z" fill="#5e5e5e"/><path d="M598.56 519l-.06.98.03 1.02-1.08-.02.04-2zM485.36 378.8l-9.27.38 4.03-14.45z" fill="#5e5e5e"/><path d="M486.77 379.74l-12 .5L480 361.5zm-9.34-1.62l6.5-.27-3.66-9.88z" fill="#5e5e5e"/><g><use xlink:href="#f" transform="matrix(1,0,0,1,434.26468647197163,411.31124130857023) translate(0 14.222222222222223)"/><use xlink:href="#g" transform="matrix(1,0,0,1,434.26468647197163,411.31124130857023) translate(34.518518518518526 14.222222222222223)"/></g><defs><path fill="#333" d="M212-179c-10-28-35-45-73-45-59 0-87 40-87 99 0 60 29 101 89 101 43 0 62-24 78-52l27 14C228-24 195 4 139 4 59 4 22-46 18-125c-6-104 99-153 187-111 19 9 31 26 39 46" id="i"/><path fill="#333" d="M24 0v-261h32V0H24" id="j"/><path fill="#333" d="M24-231v-30h32v30H24zM24 0v-190h32V0H24" id="k"/><path fill="#333" d="M100-194c63 0 86 42 84 106H49c0 40 14 67 53 68 26 1 43-12 49-29l28 8c-11 28-37 45-77 45C44 4 14-33 15-96c1-61 26-98 85-98zm52 81c6-60-76-77-97-28-3 7-6 17-6 28h103" id="l"/><path fill="#333" d="M117-194c89-4 53 116 60 194h-32v-121c0-31-8-49-39-48C34-167 62-67 57 0H25l-1-190h30c1 10-1 24 2 32 11-22 29-35 61-36" id="m"/><path fill="#333" d="M59-47c-2 24 18 29 38 22v24C64 9 27 4 27-40v-127H5v-23h24l9-43h21v43h35v23H59v120" id="n"/><g id="a"><use transform="matrix(0.06172839506172839,0,0,0.06172839506172839,0,0)" xlink:href="#i"/><use transform="matrix(0.06172839506172839,0,0,0.06172839506172839,15.987654320987653,0)" xlink:href="#j"/><use transform="matrix(0.06172839506172839,0,0,0.06172839506172839,20.864197530864196,0)" xlink:href="#k"/><use transform="matrix(0.06172839506172839,0,0,0.06172839506172839,25.74074074074074,0)" xlink:href="#l"/><use transform="matrix(0.06172839506172839,0,0,0.06172839506172839,38.08641975308642,0)" xlink:href="#m"/><use transform="matrix(0.06172839506172839,0,0,0.06172839506172839,50.432098765432094,0)" xlink:href="#n"/></g><path fill="#333" d="M194 0L95-120 63-95V0H30v-248h33v124l119-124h40L117-140 236 0h-42" id="o"/><path fill="#333" d="M114-163C36-179 61-72 57 0H25l-1-190h30c1 12-1 29 2 39 6-27 23-49 58-41v29" id="p"/><g id="b"><use transform="matrix(0.06172839506172839,0,0,0.06172839506172839,0,0)" xlink:href="#o"/><use transform="matrix(0.06172839506172839,0,0,0.06172839506172839,14.814814814814813,0)" xlink:href="#l"/><use transform="matrix(0.06172839506172839,0,0,0.06172839506172839,27.160493827160494,0)" xlink:href="#p"/><use transform="matrix(0.06172839506172839,0,0,0.06172839506172839,34.50617283950617,0)" xlink:href="#m"/><use transform="matrix(0.06172839506172839,0,0,0.06172839506172839,46.85185185185185,0)" xlink:href="#l"/><use transform="matrix(0.06172839506172839,0,0,0.06172839506172839,59.197530864197525,0)" xlink:href="#j"/></g><path fill="#333" d="M185-189c-5-48-123-54-124 2 14 75 158 14 163 119 3 78-121 87-175 55-17-10-28-26-33-46l33-7c5 56 141 63 141-1 0-78-155-14-162-118-5-82 145-84 179-34 5 7 8 16 11 25" id="q"/><path fill="#333" d="M108 0H70L1-190h34L89-25l56-165h34" id="r"/><g id="c"><use transform="matrix(0.06172839506172839,0,0,0.06172839506172839,0,0)" xlink:href="#q"/><use transform="matrix(0.06172839506172839,0,0,0.06172839506172839,14.814814814814813,0)" xlink:href="#l"/><use transform="matrix(0.06172839506172839,0,0,0.06172839506172839,27.160493827160494,0)" xlink:href="#p"/><use transform="matrix(0.06172839506172839,0,0,0.06172839506172839,34.50617283950617,0)" xlink:href="#r"/><use transform="matrix(0.06172839506172839,0,0,0.06172839506172839,45.61728395061728,0)" xlink:href="#l"/><use transform="matrix(0.06172839506172839,0,0,0.06172839506172839,57.962962962962955,0)" xlink:href="#p"/></g><path fill="#333" d="M175 0L67-191c6 58 2 128 3 191H24v-248h59L193-55c-6-58-2-129-3-193h46V0h-61" id="s"/><path fill="#333" d="M110-194c64 0 96 36 96 99 0 64-35 99-97 99-61 0-95-36-95-99 0-62 34-99 96-99zm-1 164c35 0 45-28 45-65 0-40-10-65-43-65-34 0-45 26-45 65 0 36 10 65 43 65" id="t"/><path fill="#333" d="M115-3C79 11 28 4 28-45v-112H4v-33h27l15-45h31v45h36v33H77v99c-1 23 16 31 38 25v30" id="u"/><path fill="#333" d="M25-224v-37h50v37H25zM25 0v-190h50V0H25" id="v"/><path fill="#333" d="M121-226c-27-7-43 5-38 36h38v33H83V0H34v-157H6v-33h28c-9-59 32-81 87-68v32" id="w"/><path fill="#333" d="M123 10C108 53 80 86 19 72V37c35 8 53-11 59-39L3-190h52l48 148c12-52 28-100 44-148h51" id="x"/><g id="d"><use transform="matrix(0.04938271604938272,0,0,0.04938271604938272,0,0)" xlink:href="#s"/><use transform="matrix(0.04938271604938272,0,0,0.04938271604938272,12.790123456790125,0)" xlink:href="#t"/><use transform="matrix(0.04938271604938272,0,0,0.04938271604938272,23.60493827160494,0)" xlink:href="#u"/><use transform="matrix(0.04938271604938272,0,0,0.04938271604938272,29.481481481481485,0)" xlink:href="#v"/><use transform="matrix(0.04938271604938272,0,0,0.04938271604938272,34.41975308641976,0)" xlink:href="#w"/><use transform="matrix(0.04938271604938272,0,0,0.04938271604938272,40.296296296296305,0)" xlink:href="#x"/></g><path fill="#333" d="M169-182c-1-43-94-46-97-3 18 66 151 10 154 114 3 95-165 93-204 36-6-8-10-19-12-30l50-8c3 46 112 56 116 5-17-69-150-10-154-114-4-87 153-88 188-35 5 8 8 18 10 28" id="y"/><path fill="#333" d="M185-48c-13 30-37 53-82 52C43 2 14-33 14-96s30-98 90-98c62 0 83 45 84 108H66c0 31 8 55 39 56 18 0 30-7 34-22zm-45-69c5-46-57-63-70-21-2 6-4 13-4 21h74" id="z"/><path fill="#333" d="M135-150c-39-12-60 13-60 57V0H25l-1-190h47c2 13-1 29 3 40 6-28 27-53 61-41v41" id="A"/><path fill="#333" d="M128 0H69L1-190h53L99-40l48-150h52" id="B"/><g id="e"><use transform="matrix(0.04938271604938272,0,0,0.04938271604938272,0,0)" xlink:href="#y"/><use transform="matrix(0.04938271604938272,0,0,0.04938271604938272,11.851851851851853,0)" xlink:href="#z"/><use transform="matrix(0.04938271604938272,0,0,0.04938271604938272,21.7283950617284,0)" xlink:href="#A"/><use transform="matrix(0.04938271604938272,0,0,0.04938271604938272,28.64197530864198,0)" xlink:href="#B"/><use transform="matrix(0.04938271604938272,0,0,0.04938271604938272,38.518518518518526,0)" xlink:href="#z"/><use transform="matrix(0.04938271604938272,0,0,0.04938271604938272,48.39506172839507,0)" xlink:href="#A"/></g><path fill="#333" d="M24 0v-248h52V0H24" id="C"/><path fill="#333" d="M24-248c93 1 206-16 204 79-1 75-69 88-152 82V0H24v-248zm52 121c47 0 100 7 100-41 0-47-54-39-100-39v80" id="D"/><path fill="#333" d="M67-125c0 53 21 87 73 88 37 1 54-22 65-47l45 17C233-25 199 4 140 4 58 4 20-42 15-125 8-235 124-281 211-232c18 10 29 29 36 50l-46 12c-8-25-30-41-62-41-52 0-71 34-72 86" id="E"/><g id="f"><use transform="matrix(0.04938271604938272,0,0,0.04938271604938272,0,0)" xlink:href="#C"/><use transform="matrix(0.04938271604938272,0,0,0.04938271604938272,4.938271604938272,0)" xlink:href="#D"/><use transform="matrix(0.04938271604938272,0,0,0.04938271604938272,16.790123456790127,0)" xlink:href="#E"/></g><path fill="#333" d="M133-34C117-15 103 5 69 4 32 3 11-16 11-54c-1-60 55-63 116-61 1-26-3-47-28-47-18 1-26 9-28 27l-52-2c7-38 36-58 82-57s74 22 75 68l1 82c-1 14 12 18 25 15v27c-30 8-71 5-69-32zm-48 3c29 0 43-24 42-57-32 0-66-3-65 30 0 17 8 27 23 27" id="F"/><path fill="#333" d="M25 0v-261h50V0H25" id="G"/><path fill="#333" d="M135-194c52 0 70 43 70 98 0 56-19 99-73 100-30 1-46-15-58-35L72 0H24l1-261h50v104c11-23 29-37 60-37zM114-30c31 0 40-27 40-66 0-37-7-63-39-63s-41 28-41 65c0 36 8 64 40 64" id="H"/><path fill="#333" d="M190-63c-7 42-38 67-86 67-59 0-84-38-90-98-12-110 154-137 174-36l-49 2c-2-19-15-32-35-32-30 0-35 28-38 64-6 74 65 87 74 30" id="I"/><path fill="#333" d="M147 0L96-86 75-71V0H25v-261h50v150l67-79h53l-66 74L201 0h-54" id="J"/><g id="g"><use transform="matrix(0.04938271604938272,0,0,0.04938271604938272,0,0)" xlink:href="#E"/><use transform="matrix(0.04938271604938272,0,0,0.04938271604938272,12.790123456790125,0)" xlink:href="#F"/><use transform="matrix(0.04938271604938272,0,0,0.04938271604938272,22.66666666666667,0)" xlink:href="#G"/><use transform="matrix(0.04938271604938272,0,0,0.04938271604938272,27.604938271604947,0)" xlink:href="#G"/><use transform="matrix(0.04938271604938272,0,0,0.04938271604938272,32.543209876543216,0)" xlink:href="#H"/><use transform="matrix(0.04938271604938272,0,0,0.04938271604938272,43.35802469135803,0)" xlink:href="#F"/><use transform="matrix(0.04938271604938272,0,0,0.04938271604938272,53.23456790123457,0)" xlink:href="#I"/><use transform="matrix(0.04938271604938272,0,0,0.04938271604938272,63.111111111111114,0)" xlink:href="#J"/></g><path fill="#333" d="M135-194c87-1 58 113 63 194h-50c-7-57 23-157-34-157-59 0-34 97-39 157H25l-1-190h47c2 12-1 28 3 38 12-26 28-41 61-42" id="K"/><g id="h"><use transform="matrix(0.04938271604938272,0,0,0.04938271604938272,0,0)" xlink:href="#E"/><use transform="matrix(0.04938271604938272,0,0,0.04938271604938272,12.790123456790125,0)" xlink:href="#G"/><use transform="matrix(0.04938271604938272,0,0,0.04938271604938272,17.7283950617284,0)" xlink:href="#v"/><use transform="matrix(0.04938271604938272,0,0,0.04938271604938272,22.66666666666667,0)" xlink:href="#z"/><use transform="matrix(0.04938271604938272,0,0,0.04938271604938272,32.543209876543216,0)" xlink:href="#K"/><use transform="matrix(0.04938271604938272,0,0,0.04938271604938272,43.35802469135803,0)" xlink:href="#u"/></g></defs></g></svg>