<svg xmlns="http://www.w3.org/2000/svg" xmlns:xlink="http://www.w3.org/1999/xlink" xmlns:lucid="lucid" width="860.93" height="680"><g transform="translate(-389.8401161665729 -80)" lucid:page-tab-id="g8bi4J77F4L7"><path d="M540 606c0-3.3 2.7-6 6-6h508c3.3 0 6 2.7 6 6v48c0 3.3-2.7 6-6 6H546c-3.3 0-6-2.7-6-6z" stroke="#5e5e5e" stroke-width="3" fill="#fff"/><use xlink:href="#a" transform="matrix(1,0,0,1,552,612) translate(223.95679012345678 22.27777777777778)"/><path d="M540 686c0-3.3 2.7-6 6-6h508c3.3 0 6 2.7 6 6v48c0 3.3-2.7 6-6 6H546c-3.3 0-6-2.7-6-6z" stroke="#5e5e5e" stroke-width="3" fill="#fff"/><use xlink:href="#b" transform="matrix(1,0,0,1,552,692) translate(223.30864197530863 22.27777777777778)"/><path d="M540 546c0-3.3 2.7-6 6-6h508c3.3 0 6 2.7 6 6v48c0 3.3-2.7 6-6 6H546c-3.3 0-6-2.7-6-6z" stroke="#5e5e5e" stroke-width="3" fill="#fff"/><use xlink:href="#a" transform="matrix(1,0,0,1,552,552) translate(223.95679012345678 22.27777777777778)"/><path d="M540 486c0-3.3 2.7-6 6-6h508c3.3 0 6 2.7 6 6v48c0 3.3-2.7 6-6 6H546c-3.3 0-6-2.7-6-6z" stroke="#5e5e5e" stroke-width="3" fill="#fff"/><use xlink:href="#a" transform="matrix(1,0,0,1,552,492) translate(223.95679012345678 22.27777777777778)"/><path d="M540 426c0-3.3 2.7-6 6-6h508c3.3 0 6 2.7 6 6v48c0 3.3-2.7 6-6 6H546c-3.3 0-6-2.7-6-6z" stroke="#5e5e5e" stroke-width="3" fill="#fff"/><use xlink:href="#a" transform="matrix(1,0,0,1,552,432) translate(223.95679012345678 22.27777777777778)"/><path d="M540 366c0-3.3 2.7-6 6-6h508c3.3 0 6 2.7 6 6v48c0 3.3-2.7 6-6 6H546c-3.3 0-6-2.7-6-6z" stroke="#5e5e5e" stroke-width="3" fill="#fff"/><use xlink:href="#a" transform="matrix(1,0,0,1,552,372) translate(223.95679012345678 22.27777777777778)"/><path d="M540 306c0-3.3 2.7-6 6-6h508c3.3 0 6 2.7 6 6v48c0 3.3-2.7 6-6 6H546c-3.3 0-6-2.7-6-6z" stroke="#5e5e5e" stroke-width="3" fill="#fff"/><use xlink:href="#a" transform="matrix(1,0,0,1,552,312) translate(223.95679012345678 22.27777777777778)"/><path d="M540 246c0-3.3 2.7-6 6-6h508c3.3 0 6 2.7 6 6v48c0 3.3-2.7 6-6 6H546c-3.3 0-6-2.7-6-6z" stroke="#5e5e5e" stroke-width="3" fill="#fff"/><use xlink:href="#a" transform="matrix(1,0,0,1,552,252) translate(223.95679012345678 22.27777777777778)"/><path d="M540 186c0-3.3 2.7-6 6-6h508c3.3 0 6 2.7 6 6v48c0 3.3-2.7 6-6 6H546c-3.3 0-6-2.7-6-6z" stroke="#5e5e5e" stroke-width="3" fill="#fff"/><use xlink:href="#a" transform="matrix(1,0,0,1,552,192) translate(223.95679012345678 22.27777777777778)"/><path d="M1130.45 513.87l2.12 7.03 1.96 7.67 1.77 8.3 1.5 8.92 1.2 9.43.82 9.86.43 10.1v10.23l-.43 10.13-.82 9.85-1.2 9.45-1.5 8.9-1.76 8.32-1.97 7.67-2.12 7.04-2.23 6.4-2.3 5.83-2.35 5.28-2.37 4.78-2.37 4.32-2.37 3.9-2.35 3.56-2.32 3.2-2.32 2.93-2.28 2.65-2.27 2.4-2.23 2.2-2.23 2-2.2 1.84-2.2 1.67-2.2 1.52-2.17 1.38-2.18 1.26-2.2 1.13-2.18 1.03-2.2.93-2.22.82-2.25.73-2.28.63-2.3.54-2.36.45-2.4.36-2.46.26-2.53.15-1.58.03-.04-2 1.55-.03 2.44-.16 2.38-.26 2.32-.34 2.28-.43 2.23-.53 2.2-.6 2.16-.7 2.14-.8 2.13-.9 2.12-1 2.1-1.1 2.12-1.22 2.1-1.34 2.12-1.47 2.13-1.6 2.14-1.78 2.16-1.95 2.18-2.14 2.2-2.35 2.24-2.6 2.26-2.84 2.3-3.15 2.3-3.48 2.32-3.84 2.33-4.25 2.33-4.7 2.3-5.2 2.3-5.74 2.2-6.34 2.08-6.95 1.95-7.58 1.74-8.23 1.5-8.84 1.17-9.36.83-9.77.42-10.04v-10.15l-.42-10.04-.82-9.76-1.18-9.36-1.5-8.82-1.73-8.23-1.96-7.6-2.1-6.94-.4-1.14h2.13zm-49.76-61.02l2.2.83 2.22.92 2.2 1.03 2.17 1.14 2.17 1.26 2.18 1.4 2.18 1.5 2.2 1.67 2.2 1.83 2.23 2 2.25 2.2 2.27 2.4 2.3 2.66 2.3 2.9 2.33 3.22 2.36 3.55 2.36 3.9 2.38 4.33.2.43h-2.25l-2.06-3.75-2.33-3.84-2.3-3.48-2.3-3.14-2.25-2.85-2.24-2.6-2.2-2.34-2.2-2.14-2.15-1.96-2.14-1.77-2.14-1.62-2.12-1.47-2.1-1.34-2.1-1.2-2.12-1.12-2.12-1-2.12-.9-2.15-.78-.65-.2.62-1.92zM1062.55 710.98l-1.05.02v-2l1-.02zM1078.05 458l-13.35-6.82 14.8-2.33z" fill="#5e5e5e"/><path d="M1078.82 459.52l-17.32-8.85 19.22-3.02zm-10.93-7.83l9.38 4.8 1.03-6.45z" fill="#5e5e5e"/><use xlink:href="#c" transform="matrix(1,0,0,1,1096.6858504290847,492.03148700312994) translate(0 14.222222222222223)"/><use xlink:href="#d" transform="matrix(1,0,0,1,1096.6858504290847,492.03148700312994) translate(14.814814814814817 14.222222222222223)"/><path d="M1211.38 489.6l-1.58 18.93-2.3 18.14-2.88 17.1-3.4 15.97-3.77 14.74-4.07 13.5-4.28 12.3-4.42 11.18-4.5 10.12-4.55 9.16-4.55 8.3-4.54 7.5-4.5 6.78-4.47 6.15-4.43 5.6-4.38 5.07-4.33 4.62-4.3 4.2-4.25 3.83-4.22 3.5-4.2 3.17-4.18 2.9-4.16 2.65-4.16 2.4-4.17 2.2-4.2 1.95-4.2 1.77-4.24 1.58-4.3 1.4-4.33 1.2-4.42 1.04-4.48.86-4.6.68-4.7.5-4.83.3-3.97.08-.05-2 3.92-.08 4.75-.3 4.62-.5 4.5-.65 4.43-.84 4.33-1 4.26-1.2 4.2-1.37 4.16-1.55 4.13-1.73 4.1-1.94 4.1-2.13 4.08-2.36 4.1-2.6 4.1-2.84 4.13-3.14 4.17-3.44 4.2-3.78 4.23-4.14 4.27-4.56 4.33-5 4.37-5.54 4.42-6.08 4.45-6.72 4.5-7.43 4.5-8.2 4.52-9.1 4.47-10.05 4.38-11.1 4.26-12.22 4.05-13.42 3.75-14.65 3.37-15.9 2.88-17.03 2.28-18.05 1.6-18.86.76-18.46h2zM1080.6 211.23l4.5.86 4.4 1.04 4.36 1.2 4.3 1.4 4.23 1.58 4.2 1.77 4.18 1.96 4.17 2.18 4.16 2.4 4.17 2.64 4.18 2.9 4.2 3.2 4.22 3.48 4.25 3.84 4.3 4.2 4.33 4.62 4.38 5.07 4.42 5.58 4.47 6.15 4.5 6.8 4.55 7.5 4.55 8.27 4.55 9.16 4.5 10.12 4.42 11.17 4.27 12.3 4.07 13.5 3.78 14.74 3.4 15.94 2.88 17.12 2.3 18.14 1.58 18.94.78 18.62h-2l-.77-18.5-1.6-18.86-2.28-18.05-2.87-17.03-3.38-15.88-3.75-14.65-4.05-13.43-4.26-12.22-4.37-11.1-4.47-10.04-4.5-9.07-4.52-8.2-4.5-7.44-4.46-6.73-4.42-6.08-4.37-5.53-4.34-5-4.27-4.57-4.25-4.15-4.2-3.77-4.15-3.44-4.13-3.14-4.1-2.85-4.1-2.6-4.1-2.36-4.08-2.15-4.12-1.93-4.13-1.74-4.16-1.55-4.22-1.37-4.26-1.2-4.33-1-4.43-.84-.5-.08.3-1.97z" fill="#5e5e5e"/><path d="M1062.55 710.98l-1.05.02v-2l1-.02zM1078.57 216.7l-13.84-5.77 14.6-3.47z" fill="#5e5e5e"/><path d="M1079.46 218.15l-17.96-7.48 18.93-4.5zm-11.5-6.96l9.73 4.04.5-6.5z" fill="#5e5e5e"/><use xlink:href="#e" transform="matrix(1,0,0,1,1182.629538448424,449.6636739012716) translate(0 14.222222222222223)"/><use xlink:href="#d" transform="matrix(1,0,0,1,1182.629538448424,449.6636739012716) translate(14.814814814814817 14.222222222222223)"/><path d="M540 106c0-3.3 2.7-6 6-6h508c3.3 0 6 2.7 6 6v48c0 3.3-2.7 6-6 6H546c-3.3 0-6-2.7-6-6z" stroke="#5e5e5e" stroke-width="3" fill="#fff"/><use xlink:href="#f" transform="matrix(1,0,0,1,552,112) translate(197.41358024691357 22.27777777777778)"/><use xlink:href="#g" transform="matrix(1,0,0,1,552,112) translate(244.26543209876542 22.27777777777778)"/><path d="M461 701.5h-2V374.66h2zm0-348.17h-2V121h2z" fill="#5e5e5e"/><path d="M461 121.03h-2V120h2zM460 716.75l-4.63-14.26h9.27z" fill="#5e5e5e"/><path d="M460 720l-6-18.5h12zm-3.26-16.5L460 713.5l3.26-10.03z" fill="#5e5e5e"/><g><use xlink:href="#h" transform="matrix(1,0,0,1,400.8401161665729,353.3332666631507) translate(0 14.222222222222223)"/><use xlink:href="#i" transform="matrix(1,0,0,1,400.8401161665729,353.3332666631507) translate(77.92592592592592 14.222222222222223)"/></g><defs><path fill="#333" d="M190 0L58-211 59 0H30v-248h39L202-35l-2-213h31V0h-41" id="j"/><path fill="#333" d="M140-251c81 0 123 46 123 126C263-46 219 4 140 4 59 4 17-45 17-125s42-126 123-126zm0 227c63 0 89-41 89-101s-29-99-89-99c-61 0-89 39-89 99S79-25 140-24" id="k"/><path fill="#333" d="M30-248c87 1 191-15 191 75 0 78-77 80-158 76V0H30v-248zm33 125c57 0 124 11 124-50 0-59-68-47-124-48v98" id="l"/><g id="a"><use transform="matrix(0.06172839506172839,0,0,0.06172839506172839,0,0)" xlink:href="#j"/><use transform="matrix(0.06172839506172839,0,0,0.06172839506172839,15.987654320987653,0)" xlink:href="#k"/><use transform="matrix(0.06172839506172839,0,0,0.06172839506172839,33.2716049382716,0)" xlink:href="#l"/></g><path fill="#333" d="M30 0v-248h33v221h125V0H30" id="m"/><path fill="#333" d="M100-194c62-1 85 37 85 99 1 63-27 99-86 99S16-35 15-95c0-66 28-99 85-99zM99-20c44 1 53-31 53-75 0-43-8-75-51-75s-53 32-53 75 10 74 51 75" id="n"/><path fill="#333" d="M115-194c55 1 70 41 70 98S169 2 115 4C84 4 66-9 55-30l1 105H24l-1-265h31l2 30c10-21 28-34 59-34zm-8 174c40 0 45-34 45-75s-6-73-45-74c-42 0-51 32-51 76 0 43 10 73 51 73" id="o"/><g id="b"><use transform="matrix(0.06172839506172839,0,0,0.06172839506172839,0,0)" xlink:href="#m"/><use transform="matrix(0.06172839506172839,0,0,0.06172839506172839,12.345679012345679,0)" xlink:href="#n"/><use transform="matrix(0.06172839506172839,0,0,0.06172839506172839,24.691358024691358,0)" xlink:href="#n"/><use transform="matrix(0.06172839506172839,0,0,0.06172839506172839,37.03703703703704,0)" xlink:href="#o"/></g><path fill="#333" d="M165-50V0h-47v-50H5v-38l105-160h55v161h33v37h-33zm-47-37l2-116L46-87h72" id="p"/><use transform="matrix(0.04938271604938272,0,0,0.04938271604938272,0,0)" xlink:href="#p" id="c"/><path fill="#333" d="M135-194c87-1 58 113 63 194h-50c-7-57 23-157-34-157-59 0-34 97-39 157H25l-1-190h47c2 12-1 28 3 38 12-26 28-41 61-42" id="q"/><path fill="#333" d="M110-194c64 0 96 36 96 99 0 64-35 99-97 99-61 0-95-36-95-99 0-62 34-99 96-99zm-1 164c35 0 45-28 45-65 0-40-10-65-43-65-34 0-45 26-45 65 0 36 10 65 43 65" id="r"/><path fill="#333" d="M135-194c53 0 70 44 70 98 0 56-19 98-73 100-31 1-45-17-59-34 3 33 2 69 2 105H25l-1-265h48c2 10 0 23 3 31 11-24 29-35 60-35zM114-30c33 0 39-31 40-66 0-38-9-64-40-64-56 0-55 130 0 130" id="s"/><path fill="#333" d="M137-138c1-29-70-34-71-4 15 46 118 7 119 86 1 83-164 76-172 9l43-7c4 19 20 25 44 25 33 8 57-30 24-41C81-84 22-81 20-136c-2-80 154-74 161-7" id="t"/><g id="d"><use transform="matrix(0.04938271604938272,0,0,0.04938271604938272,0,0)" xlink:href="#q"/><use transform="matrix(0.04938271604938272,0,0,0.04938271604938272,10.814814814814815,0)" xlink:href="#r"/><use transform="matrix(0.04938271604938272,0,0,0.04938271604938272,21.62962962962963,0)" xlink:href="#s"/><use transform="matrix(0.04938271604938272,0,0,0.04938271604938272,32.44444444444444,0)" xlink:href="#t"/></g><path fill="#333" d="M138-131c27 9 52 24 51 61 0 53-36 74-89 74S11-19 11-69c0-35 22-54 51-61-78-25-46-121 38-121 51 0 83 19 83 66 0 30-18 49-45 54zm-38-16c24 0 32-13 32-36 1-23-11-34-32-34-22 0-33 12-32 34 0 22 9 36 32 36zm1 116c27 0 37-17 37-43 0-25-13-39-39-39-24 0-37 15-37 40 0 27 11 42 39 42" id="u"/><use transform="matrix(0.04938271604938272,0,0,0.04938271604938272,0,0)" xlink:href="#u" id="e"/><path fill="#333" d="M127-220V0H93v-220H8v-28h204v28h-85" id="v"/><path fill="#333" d="M100-194c63 0 86 42 84 106H49c0 40 14 67 53 68 26 1 43-12 49-29l28 8c-11 28-37 45-77 45C44 4 14-33 15-96c1-61 26-98 85-98zm52 81c6-60-76-77-97-28-3 7-6 17-6 28h103" id="w"/><path fill="#333" d="M135-143c-3-34-86-38-87 0 15 53 115 12 119 90S17 21 10-45l28-5c4 36 97 45 98 0-10-56-113-15-118-90-4-57 82-63 122-42 12 7 21 19 24 35" id="x"/><path fill="#333" d="M59-47c-2 24 18 29 38 22v24C64 9 27 4 27-40v-127H5v-23h24l9-43h21v43h35v23H59v120" id="y"/><g id="f"><use transform="matrix(0.06172839506172839,0,0,0.06172839506172839,0,0)" xlink:href="#v"/><use transform="matrix(0.06172839506172839,0,0,0.06172839506172839,11.049382716049381,0)" xlink:href="#w"/><use transform="matrix(0.06172839506172839,0,0,0.06172839506172839,23.39506172839506,0)" xlink:href="#x"/><use transform="matrix(0.06172839506172839,0,0,0.06172839506172839,34.50617283950617,0)" xlink:href="#y"/></g><path fill="#333" d="M84 4C-5 8 30-112 23-190h32v120c0 31 7 50 39 49 72-2 45-101 50-169h31l1 190h-30c-1-10 1-25-2-33-11 22-28 36-60 37" id="z"/><g id="g"><use transform="matrix(0.06172839506172839,0,0,0.06172839506172839,0,0)" xlink:href="#x"/><use transform="matrix(0.06172839506172839,0,0,0.06172839506172839,11.11111111111111,0)" xlink:href="#w"/><use transform="matrix(0.06172839506172839,0,0,0.06172839506172839,23.45679012345679,0)" xlink:href="#y"/><use transform="matrix(0.06172839506172839,0,0,0.06172839506172839,29.62962962962963,0)" xlink:href="#z"/><use transform="matrix(0.06172839506172839,0,0,0.06172839506172839,41.97530864197531,0)" xlink:href="#o"/></g><path fill="#333" d="M24-248c93 1 206-16 204 79-1 75-69 88-152 82V0H24v-248zm52 121c47 0 100 7 100-41 0-47-54-39-100-39v80" id="A"/><path fill="#333" d="M135-150c-39-12-60 13-60 57V0H25l-1-190h47c2 13-1 29 3 40 6-28 27-53 61-41v41" id="B"/><path fill="#333" d="M195-6C206 82 75 100 31 46c-4-6-6-13-8-21l49-6c3 16 16 24 34 25 40 0 42-37 40-79-11 22-30 35-61 35-53 0-70-43-70-97 0-56 18-96 73-97 30 0 46 14 59 34l2-30h47zm-90-29c32 0 41-27 41-63 0-35-9-62-40-62-32 0-39 29-40 63 0 36 9 62 39 62" id="C"/><path fill="#333" d="M133-34C117-15 103 5 69 4 32 3 11-16 11-54c-1-60 55-63 116-61 1-26-3-47-28-47-18 1-26 9-28 27l-52-2c7-38 36-58 82-57s74 22 75 68l1 82c-1 14 12 18 25 15v27c-30 8-71 5-69-32zm-48 3c29 0 43-24 42-57-32 0-66-3-65 30 0 17 8 27 23 27" id="D"/><path fill="#333" d="M220-157c-53 9-28 100-34 157h-49v-107c1-27-5-49-29-50C55-147 81-57 75 0H25l-1-190h47c2 12-1 28 3 38 10-53 101-56 108 0 13-22 24-43 59-42 82 1 51 116 57 194h-49v-107c-1-25-5-48-29-50" id="E"/><g id="h"><use transform="matrix(0.04938271604938272,0,0,0.04938271604938272,0,0)" xlink:href="#A"/><use transform="matrix(0.04938271604938272,0,0,0.04938271604938272,11.851851851851853,0)" xlink:href="#B"/><use transform="matrix(0.04938271604938272,0,0,0.04938271604938272,18.765432098765434,0)" xlink:href="#r"/><use transform="matrix(0.04938271604938272,0,0,0.04938271604938272,29.58024691358025,0)" xlink:href="#C"/><use transform="matrix(0.04938271604938272,0,0,0.04938271604938272,40.39506172839506,0)" xlink:href="#B"/><use transform="matrix(0.04938271604938272,0,0,0.04938271604938272,47.308641975308646,0)" xlink:href="#D"/><use transform="matrix(0.04938271604938272,0,0,0.04938271604938272,57.18518518518519,0)" xlink:href="#E"/></g><path fill="#333" d="M76-208v77h127v40H76V0H24v-248h183v40H76" id="F"/><path fill="#333" d="M25 0v-261h50V0H25" id="G"/><path fill="#333" d="M231 0h-52l-39-155L100 0H48L-1-190h46L77-45c9-52 24-97 36-145h53l37 145 32-145h46" id="H"/><g id="i"><use transform="matrix(0.04938271604938272,0,0,0.04938271604938272,0,0)" xlink:href="#F"/><use transform="matrix(0.04938271604938272,0,0,0.04938271604938272,10.814814814814815,0)" xlink:href="#G"/><use transform="matrix(0.04938271604938272,0,0,0.04938271604938272,15.753086419753087,0)" xlink:href="#r"/><use transform="matrix(0.04938271604938272,0,0,0.04938271604938272,26.567901234567902,0)" xlink:href="#H"/></g></defs></g></svg>